<?xml version="1.0" encoding="UTF-8" standalone="no"?>
<!DOCTYPE svg PUBLIC "-//W3C//DTD SVG 1.1//EN"
 "http://www.w3.org/Graphics/SVG/1.1/DTD/svg11.dtd">
<!-- Generated by graphviz version 14.0.4 (0)
 -->
<!-- Title: List Pages: 1 -->
<svg width="650pt" height="332pt"
 viewBox="0.00 0.00 650.00 332.00" xmlns="http://www.w3.org/2000/svg" xmlns:xlink="http://www.w3.org/1999/xlink">
<g id="graph0" class="graph" transform="scale(1 1) rotate(0) translate(4 328)">
<title>List</title>
<polygon fill="#1f1f1f" stroke="none" points="-4,4 -4,-328 645.62,-328 645.62,4 -4,4"/>
<!-- node_0 -->
<g id="node1" class="node">
<title>node_0</title>
<polygon fill="#6e7681" stroke="white" points="275.88,-324 221.88,-324 221.88,-288 275.88,-288 275.88,-324"/>
<text xml:space="preserve" text-anchor="middle" x="248.88" y="-302.45" font-family="verdana" font-size="14.00" fill="#000000">Start</text>
</g>
<!-- node_1 -->
<g id="node2" class="node">
<title>node_1</title>
<polygon fill="#6e7681" stroke="white" points="278.62,-252 219.12,-252 219.12,-216 278.62,-216 278.62,-252"/>
<text xml:space="preserve" text-anchor="middle" x="248.88" y="-230.45" font-family="verdana" font-size="14.00" fill="#000000">Node1</text>
</g>
<!-- node_0&#45;&gt;node_1 -->
<g id="edge1" class="edge">
<title>node_0&#45;&gt;node_1</title>
<path fill="none" stroke="white" d="M248.88,-287.7C248.88,-280.41 248.88,-271.73 248.88,-263.54"/>
<polygon fill="white" stroke="white" points="252.38,-263.62 248.88,-253.62 245.38,-263.62 252.38,-263.62"/>
</g>
<!-- node_15 -->
<g id="node3" class="node">
<title>node_15</title>
<polygon fill="#6e7681" stroke="white" points="67.75,-180 0,-180 0,-144 67.75,-144 67.75,-180"/>
<text xml:space="preserve" text-anchor="middle" x="33.88" y="-158.45" font-family="verdana" font-size="14.00" fill="#000000">Node15</text>
</g>
<!-- node_1&#45;&gt;node_15 -->
<g id="edge2" class="edge">
<title>node_1&#45;&gt;node_15</title>
<path fill="none" stroke="white" d="M218.82,-224.51C186.39,-215.18 133.07,-199.36 78.59,-180.48"/>
<polygon fill="white" stroke="white" points="80.08,-177.29 69.48,-177.29 77.76,-183.89 80.08,-177.29"/>
</g>
<!-- node_16 -->
<g id="node4" class="node">
<title>node_16</title>
<polygon fill="#6e7681" stroke="white" points="153.75,-180 86,-180 86,-144 153.75,-144 153.75,-180"/>
<text xml:space="preserve" text-anchor="middle" x="119.88" y="-158.45" font-family="verdana" font-size="14.00" fill="#000000">Node16</text>
</g>
<!-- node_1&#45;&gt;node_16 -->
<g id="edge3" class="edge">
<title>node_1&#45;&gt;node_16</title>
<path fill="none" stroke="white" d="M218.63,-216.59C201.67,-207.38 180.25,-195.76 161.69,-185.69"/>
<polygon fill="white" stroke="white" points="163.52,-182.7 153.06,-181.01 160.18,-188.85 163.52,-182.7"/>
</g>
<!-- node_18 -->
<g id="node6" class="node">
<title>node_18</title>
<polygon fill="#6e7681" stroke="white" points="239.75,-180 172,-180 172,-144 239.75,-144 239.75,-180"/>
<text xml:space="preserve" text-anchor="middle" x="205.88" y="-158.45" font-family="verdana" font-size="14.00" fill="#000000">Node18</text>
</g>
<!-- node_1&#45;&gt;node_18 -->
<g id="edge5" class="edge">
<title>node_1&#45;&gt;node_18</title>
<path fill="none" stroke="white" d="M238.25,-215.7C233.46,-207.9 227.69,-198.51 222.36,-189.83"/>
<polygon fill="white" stroke="white" points="225.39,-188.08 217.17,-181.39 219.43,-191.75 225.39,-188.08"/>
</g>
<!-- node_19 -->
<g id="node7" class="node">
<title>node_19</title>
<polygon fill="#6e7681" stroke="white" points="325.75,-180 258,-180 258,-144 325.75,-144 325.75,-180"/>
<text xml:space="preserve" text-anchor="middle" x="291.88" y="-158.45" font-family="verdana" font-size="14.00" fill="#000000">Node19</text>
</g>
<!-- node_1&#45;&gt;node_19 -->
<g id="edge6" class="edge">
<title>node_1&#45;&gt;node_19</title>
<path fill="none" stroke="white" d="M259.5,-215.7C264.29,-207.9 270.06,-198.51 275.39,-189.83"/>
<polygon fill="white" stroke="white" points="278.32,-191.75 280.58,-181.39 272.36,-188.08 278.32,-191.75"/>
</g>
<!-- node_10 -->
<g id="node9" class="node">
<title>node_10</title>
<polygon fill="#6e7681" stroke="white" points="411.75,-180 344,-180 344,-144 411.75,-144 411.75,-180"/>
<text xml:space="preserve" text-anchor="middle" x="377.88" y="-158.45" font-family="verdana" font-size="14.00" fill="#000000">Node10</text>
</g>
<!-- node_1&#45;&gt;node_10 -->
<g id="edge8" class="edge">
<title>node_1&#45;&gt;node_10</title>
<path fill="none" stroke="white" d="M279.12,-216.59C296.08,-207.38 317.5,-195.76 336.06,-185.69"/>
<polygon fill="white" stroke="white" points="337.57,-188.85 344.69,-181.01 334.23,-182.7 337.57,-188.85"/>
</g>
<!-- node_2 -->
<g id="node11" class="node">
<title>node_2</title>
<polygon fill="#6e7681" stroke="white" points="526.62,-180 467.12,-180 467.12,-144 526.62,-144 526.62,-180"/>
<text xml:space="preserve" text-anchor="middle" x="496.88" y="-158.45" font-family="verdana" font-size="14.00" fill="#000000">Node2</text>
</g>
<!-- node_1&#45;&gt;node_2 -->
<g id="edge10" class="edge">
<title>node_1&#45;&gt;node_2</title>
<path fill="none" stroke="white" d="M278.79,-224.56C323.01,-212.07 405.96,-188.66 455.84,-174.58"/>
<polygon fill="white" stroke="white" points="456.72,-177.97 465.4,-171.88 454.82,-171.23 456.72,-177.97"/>
</g>
<!-- node_17 -->
<g id="node5" class="node">
<title>node_17</title>
<polygon fill="#6e7681" stroke="white" points="153.75,-108 86,-108 86,-72 153.75,-72 153.75,-108"/>
<text xml:space="preserve" text-anchor="middle" x="119.88" y="-86.45" font-family="verdana" font-size="14.00" fill="#000000">Node17</text>
</g>
<!-- node_16&#45;&gt;node_17 -->
<g id="edge4" class="edge">
<title>node_16&#45;&gt;node_17</title>
<path fill="none" stroke="white" d="M119.88,-143.7C119.88,-136.41 119.88,-127.73 119.88,-119.54"/>
<polygon fill="white" stroke="white" points="123.38,-119.62 119.88,-109.62 116.38,-119.62 123.38,-119.62"/>
</g>
<!-- node_18446744073709551615 -->
<g id="node8" class="node">
<title>node_18446744073709551615</title>
<polygon fill="#6e7681" stroke="white" points="318.88,-108 264.88,-108 264.88,-72 318.88,-72 318.88,-108"/>
<text xml:space="preserve" text-anchor="middle" x="291.88" y="-86.45" font-family="verdana" font-size="14.00" fill="#000000">End</text>
</g>
<!-- node_19&#45;&gt;node_18446744073709551615 -->
<g id="edge7" class="edge">
<title>node_19&#45;&gt;node_18446744073709551615</title>
<path fill="none" stroke="white" d="M291.88,-143.7C291.88,-136.41 291.88,-127.73 291.88,-119.54"/>
<polygon fill="white" stroke="white" points="295.38,-119.62 291.88,-109.62 288.38,-119.62 295.38,-119.62"/>
</g>
<!-- node_11 -->
<g id="node10" class="node">
<title>node_11</title>
<polygon fill="#6e7681" stroke="white" points="407.75,-108 340,-108 340,-72 407.75,-72 407.75,-108"/>
<text xml:space="preserve" text-anchor="middle" x="373.88" y="-86.45" font-family="verdana" font-size="14.00" fill="#000000">Node11</text>
</g>
<!-- node_10&#45;&gt;node_11 -->
<g id="edge9" class="edge">
<title>node_10&#45;&gt;node_11</title>
<path fill="none" stroke="white" d="M376.89,-143.7C376.47,-136.41 375.97,-127.73 375.51,-119.54"/>
<polygon fill="white" stroke="white" points="379,-119.4 374.94,-109.62 372.02,-119.8 379,-119.4"/>
</g>
<!-- node_7 -->
<g id="node12" class="node">
<title>node_7</title>
<polygon fill="#6e7681" stroke="white" points="485.62,-108 426.12,-108 426.12,-72 485.62,-72 485.62,-108"/>
<text xml:space="preserve" text-anchor="middle" x="455.88" y="-86.45" font-family="verdana" font-size="14.00" fill="#000000">Node7</text>
</g>
<!-- node_2&#45;&gt;node_7 -->
<g id="edge11" class="edge">
<title>node_2&#45;&gt;node_7</title>
<path fill="none" stroke="white" d="M486.74,-143.7C482.17,-135.9 476.67,-126.51 471.59,-117.83"/>
<polygon fill="white" stroke="white" points="474.73,-116.27 466.66,-109.41 468.69,-119.81 474.73,-116.27"/>
</g>
<!-- node_8 -->
<g id="node13" class="node">
<title>node_8</title>
<polygon fill="#6e7681" stroke="white" points="563.62,-108 504.12,-108 504.12,-72 563.62,-72 563.62,-108"/>
<text xml:space="preserve" text-anchor="middle" x="533.88" y="-86.45" font-family="verdana" font-size="14.00" fill="#000000">Node8</text>
</g>
<!-- node_2&#45;&gt;node_8 -->
<g id="edge12" class="edge">
<title>node_2&#45;&gt;node_8</title>
<path fill="none" stroke="white" d="M506.02,-143.7C510.1,-135.98 515,-126.71 519.54,-118.11"/>
<polygon fill="white" stroke="white" points="522.55,-119.92 524.13,-109.44 516.36,-116.65 522.55,-119.92"/>
</g>
<!-- node_3 -->
<g id="node14" class="node">
<title>node_3</title>
<polygon fill="#6e7681" stroke="white" points="641.62,-108 582.12,-108 582.12,-72 641.62,-72 641.62,-108"/>
<text xml:space="preserve" text-anchor="middle" x="611.88" y="-86.45" font-family="verdana" font-size="14.00" fill="#000000">Node3</text>
</g>
<!-- node_2&#45;&gt;node_3 -->
<g id="edge13" class="edge">
<title>node_2&#45;&gt;node_3</title>
<path fill="none" stroke="white" d="M525.6,-143.52C540.25,-134.6 558.27,-123.63 574.04,-114.03"/>
<polygon fill="white" stroke="white" points="575.5,-117.24 582.23,-109.05 571.86,-111.26 575.5,-117.24"/>
</g>
<!-- node_4 -->
<g id="node15" class="node">
<title>node_4</title>
<polygon fill="#6e7681" stroke="white" points="641.62,-36 582.12,-36 582.12,0 641.62,0 641.62,-36"/>
<text xml:space="preserve" text-anchor="middle" x="611.88" y="-14.45" font-family="verdana" font-size="14.00" fill="#000000">Node4</text>
</g>
<!-- node_3&#45;&gt;node_4 -->
<g id="edge14" class="edge">
<title>node_3&#45;&gt;node_4</title>
<path fill="none" stroke="white" d="M611.88,-71.7C611.88,-64.41 611.88,-55.73 611.88,-47.54"/>
<polygon fill="white" stroke="white" points="615.38,-47.62 611.88,-37.62 608.38,-47.62 615.38,-47.62"/>
</g>
</g>
</svg>
