<?xml version="1.0" encoding="UTF-8" standalone="no"?>
<!DOCTYPE svg PUBLIC "-//W3C//DTD SVG 1.1//EN"
 "http://www.w3.org/Graphics/SVG/1.1/DTD/svg11.dtd">
<!-- Generated by graphviz version 14.0.4 (0)
 -->
<!-- Title: List Pages: 1 -->
<svg width="632pt" height="404pt"
 viewBox="0.00 0.00 632.00 404.00" xmlns="http://www.w3.org/2000/svg" xmlns:xlink="http://www.w3.org/1999/xlink">
<g id="graph0" class="graph" transform="scale(1 1) rotate(0) translate(4 400)">
<title>List</title>
<polygon fill="#1f1f1f" stroke="none" points="-4,4 -4,-400 627.88,-400 627.88,4 -4,4"/>
<!-- node_18446744073709551615 -->
<g id="node1" class="node">
<title>node_18446744073709551615</title>
<polygon fill="#6e7681" stroke="white" points="430.88,-396 376.88,-396 376.88,-360 430.88,-360 430.88,-396"/>
<text xml:space="preserve" text-anchor="middle" x="403.88" y="-374.45" font-family="verdana" font-size="14.00" fill="#000000">End</text>
</g>
<!-- node_19 -->
<g id="node2" class="node">
<title>node_19</title>
<polygon fill="#6e7681" stroke="white" points="437.75,-324 370,-324 370,-288 437.75,-288 437.75,-324"/>
<text xml:space="preserve" text-anchor="middle" x="403.88" y="-302.45" font-family="verdana" font-size="14.00" fill="#000000">Node19</text>
</g>
<!-- node_18446744073709551615&#45;&gt;node_19 -->
<g id="edge1" class="edge">
<title>node_18446744073709551615&#45;&gt;node_19</title>
<path fill="none" stroke="white" d="M403.88,-359.7C403.88,-352.41 403.88,-343.73 403.88,-335.54"/>
<polygon fill="white" stroke="white" points="407.38,-335.62 403.88,-325.62 400.38,-335.62 407.38,-335.62"/>
</g>
<!-- node_18 -->
<g id="node3" class="node">
<title>node_18</title>
<polygon fill="#6e7681" stroke="white" points="196.75,-252 129,-252 129,-216 196.75,-216 196.75,-252"/>
<text xml:space="preserve" text-anchor="middle" x="162.88" y="-230.45" font-family="verdana" font-size="14.00" fill="#000000">Node18</text>
</g>
<!-- node_19&#45;&gt;node_18 -->
<g id="edge2" class="edge">
<title>node_19&#45;&gt;node_18</title>
<path fill="none" stroke="white" d="M369.6,-295.05C327.22,-282.74 254.96,-261.75 208.08,-248.13"/>
<polygon fill="white" stroke="white" points="209.06,-244.77 198.48,-245.34 207.11,-251.49 209.06,-244.77"/>
</g>
<!-- node_8 -->
<g id="node9" class="node">
<title>node_8</title>
<polygon fill="#6e7681" stroke="white" points="433.62,-252 374.12,-252 374.12,-216 433.62,-216 433.62,-252"/>
<text xml:space="preserve" text-anchor="middle" x="403.88" y="-230.45" font-family="verdana" font-size="14.00" fill="#000000">Node8</text>
</g>
<!-- node_19&#45;&gt;node_8 -->
<g id="edge8" class="edge">
<title>node_19&#45;&gt;node_8</title>
<path fill="none" stroke="white" d="M403.88,-287.7C403.88,-280.41 403.88,-271.73 403.88,-263.54"/>
<polygon fill="white" stroke="white" points="407.38,-263.62 403.88,-253.62 400.38,-263.62 407.38,-263.62"/>
</g>
<!-- node_1 -->
<g id="node14" class="node">
<title>node_1</title>
<polygon fill="#6e7681" stroke="white" points="587.62,-252 528.12,-252 528.12,-216 587.62,-216 587.62,-252"/>
<text xml:space="preserve" text-anchor="middle" x="557.88" y="-230.45" font-family="verdana" font-size="14.00" fill="#000000">Node1</text>
</g>
<!-- node_19&#45;&gt;node_1 -->
<g id="edge13" class="edge">
<title>node_19&#45;&gt;node_1</title>
<path fill="none" stroke="white" d="M438.05,-289.46C461.44,-278.83 492.56,-264.69 517.22,-253.48"/>
<polygon fill="white" stroke="white" points="518.67,-256.67 526.32,-249.34 515.77,-250.29 518.67,-256.67"/>
</g>
<!-- node_17 -->
<g id="node4" class="node">
<title>node_17</title>
<polygon fill="#6e7681" stroke="white" points="67.75,-180 0,-180 0,-144 67.75,-144 67.75,-180"/>
<text xml:space="preserve" text-anchor="middle" x="33.88" y="-158.45" font-family="verdana" font-size="14.00" fill="#000000">Node17</text>
</g>
<!-- node_18&#45;&gt;node_17 -->
<g id="edge3" class="edge">
<title>node_18&#45;&gt;node_17</title>
<path fill="none" stroke="white" d="M130.66,-215.52C113.98,-206.47 93.44,-195.32 75.57,-185.62"/>
<polygon fill="white" stroke="white" points="77.47,-182.68 67.01,-180.98 74.13,-188.83 77.47,-182.68"/>
</g>
<!-- node_11 -->
<g id="node7" class="node">
<title>node_11</title>
<polygon fill="#6e7681" stroke="white" points="153.75,-180 86,-180 86,-144 153.75,-144 153.75,-180"/>
<text xml:space="preserve" text-anchor="middle" x="119.88" y="-158.45" font-family="verdana" font-size="14.00" fill="#000000">Node11</text>
</g>
<!-- node_18&#45;&gt;node_11 -->
<g id="edge6" class="edge">
<title>node_18&#45;&gt;node_11</title>
<path fill="none" stroke="white" d="M152.25,-215.7C147.46,-207.9 141.69,-198.51 136.36,-189.83"/>
<polygon fill="white" stroke="white" points="139.39,-188.08 131.17,-181.39 133.43,-191.75 139.39,-188.08"/>
</g>
<!-- node_10 -->
<g id="node8" class="node">
<title>node_10</title>
<polygon fill="#6e7681" stroke="white" points="239.75,-180 172,-180 172,-144 239.75,-144 239.75,-180"/>
<text xml:space="preserve" text-anchor="middle" x="205.88" y="-158.45" font-family="verdana" font-size="14.00" fill="#000000">Node10</text>
</g>
<!-- node_18&#45;&gt;node_10 -->
<g id="edge7" class="edge">
<title>node_18&#45;&gt;node_10</title>
<path fill="none" stroke="white" d="M173.5,-215.7C178.29,-207.9 184.06,-198.51 189.39,-189.83"/>
<polygon fill="white" stroke="white" points="192.32,-191.75 194.58,-181.39 186.36,-188.08 192.32,-191.75"/>
</g>
<!-- node_16 -->
<g id="node5" class="node">
<title>node_16</title>
<polygon fill="#6e7681" stroke="white" points="67.75,-108 0,-108 0,-72 67.75,-72 67.75,-108"/>
<text xml:space="preserve" text-anchor="middle" x="33.88" y="-86.45" font-family="verdana" font-size="14.00" fill="#000000">Node16</text>
</g>
<!-- node_17&#45;&gt;node_16 -->
<g id="edge4" class="edge">
<title>node_17&#45;&gt;node_16</title>
<path fill="none" stroke="white" d="M33.88,-143.7C33.88,-136.41 33.88,-127.73 33.88,-119.54"/>
<polygon fill="white" stroke="white" points="37.38,-119.62 33.88,-109.62 30.38,-119.62 37.38,-119.62"/>
</g>
<!-- node_15 -->
<g id="node6" class="node">
<title>node_15</title>
<polygon fill="#6e7681" stroke="white" points="67.75,-36 0,-36 0,0 67.75,0 67.75,-36"/>
<text xml:space="preserve" text-anchor="middle" x="33.88" y="-14.45" font-family="verdana" font-size="14.00" fill="#000000">Node15</text>
</g>
<!-- node_16&#45;&gt;node_15 -->
<g id="edge5" class="edge">
<title>node_16&#45;&gt;node_15</title>
<path fill="none" stroke="white" d="M33.88,-71.7C33.88,-64.41 33.88,-55.73 33.88,-47.54"/>
<polygon fill="white" stroke="white" points="37.38,-47.62 33.88,-37.62 30.38,-47.62 37.38,-47.62"/>
</g>
<!-- node_7 -->
<g id="node10" class="node">
<title>node_7</title>
<polygon fill="#6e7681" stroke="white" points="317.62,-180 258.12,-180 258.12,-144 317.62,-144 317.62,-180"/>
<text xml:space="preserve" text-anchor="middle" x="287.88" y="-158.45" font-family="verdana" font-size="14.00" fill="#000000">Node7</text>
</g>
<!-- node_8&#45;&gt;node_7 -->
<g id="edge9" class="edge">
<title>node_8&#45;&gt;node_7</title>
<path fill="none" stroke="white" d="M374.9,-215.52C360.12,-206.6 341.95,-195.63 326.04,-186.03"/>
<polygon fill="white" stroke="white" points="328.14,-183.21 317.77,-181.04 324.53,-189.21 328.14,-183.21"/>
</g>
<!-- node_4 -->
<g id="node11" class="node">
<title>node_4</title>
<polygon fill="#6e7681" stroke="white" points="395.62,-180 336.12,-180 336.12,-144 395.62,-144 395.62,-180"/>
<text xml:space="preserve" text-anchor="middle" x="365.88" y="-158.45" font-family="verdana" font-size="14.00" fill="#000000">Node4</text>
</g>
<!-- node_8&#45;&gt;node_4 -->
<g id="edge10" class="edge">
<title>node_8&#45;&gt;node_4</title>
<path fill="none" stroke="white" d="M394.48,-215.7C390.29,-207.98 385.26,-198.71 380.59,-190.11"/>
<polygon fill="white" stroke="white" points="383.73,-188.55 375.88,-181.43 377.58,-191.89 383.73,-188.55"/>
</g>
<!-- node_3 -->
<g id="node12" class="node">
<title>node_3</title>
<polygon fill="#6e7681" stroke="white" points="473.62,-180 414.12,-180 414.12,-144 473.62,-144 473.62,-180"/>
<text xml:space="preserve" text-anchor="middle" x="443.88" y="-158.45" font-family="verdana" font-size="14.00" fill="#000000">Node3</text>
</g>
<!-- node_8&#45;&gt;node_3 -->
<g id="edge11" class="edge">
<title>node_8&#45;&gt;node_3</title>
<path fill="none" stroke="white" d="M413.76,-215.7C418.22,-207.9 423.58,-198.51 428.54,-189.83"/>
<polygon fill="white" stroke="white" points="431.43,-191.84 433.35,-181.42 425.35,-188.36 431.43,-191.84"/>
</g>
<!-- node_2 -->
<g id="node13" class="node">
<title>node_2</title>
<polygon fill="#6e7681" stroke="white" points="551.62,-180 492.12,-180 492.12,-144 551.62,-144 551.62,-180"/>
<text xml:space="preserve" text-anchor="middle" x="521.88" y="-158.45" font-family="verdana" font-size="14.00" fill="#000000">Node2</text>
</g>
<!-- node_8&#45;&gt;node_2 -->
<g id="edge12" class="edge">
<title>node_8&#45;&gt;node_2</title>
<path fill="none" stroke="white" d="M433.35,-215.52C448.38,-206.6 466.87,-195.63 483.05,-186.03"/>
<polygon fill="white" stroke="white" points="484.66,-189.15 491.48,-181.03 481.09,-183.12 484.66,-189.15"/>
</g>
<!-- node_0 -->
<g id="node15" class="node">
<title>node_0</title>
<polygon fill="#6e7681" stroke="white" points="623.88,-180 569.88,-180 569.88,-144 623.88,-144 623.88,-180"/>
<text xml:space="preserve" text-anchor="middle" x="596.88" y="-158.45" font-family="verdana" font-size="14.00" fill="#000000">Start</text>
</g>
<!-- node_1&#45;&gt;node_0 -->
<g id="edge14" class="edge">
<title>node_1&#45;&gt;node_0</title>
<path fill="none" stroke="white" d="M567.52,-215.7C571.81,-207.98 576.98,-198.71 581.77,-190.11"/>
<polygon fill="white" stroke="white" points="584.8,-191.87 586.61,-181.43 578.68,-188.46 584.8,-191.87"/>
</g>
</g>
</svg>
